<?xml version="1.0" encoding="utf-8"?>
<!-- Generator: Adobe Illustrator 17.0.0, SVG Export Plug-In . SVG Version: 6.00 Build 0)  -->
<!DOCTYPE svg PUBLIC "-//W3C//DTD SVG 1.1//EN" "http://www.w3.org/Graphics/SVG/1.1/DTD/svg11.dtd">
<svg version="1.1" id="Layer_1" xmlns="http://www.w3.org/2000/svg" xmlns:xlink="http://www.w3.org/1999/xlink" x="0px" y="0px"
	 width="750px" height="500px" viewBox="0 0 750 500" enable-background="new 0 0 750 500" xml:space="preserve">
<g transform="translate(50,20)">
	<g transform="translate(20,20)">
		<g transform="translate(9.515625,32)">
			<g transform="translate(0,0)">
				<rect fill="#FFFFB2" fill-opacity="0.8" width="30" height="20"/>
				<g enable-background="new    ">
					<text transform="matrix(1 0 0 1 -3.8467 38)" font-family="'HelveticaNeueLTStd-Roman'" font-size="12">&lt; 0.5%</text>
				</g>
			</g>
			<g transform="translate(55,0)">
				<rect fill="#FED976" fill-opacity="0.8" width="30" height="20"/>
				<g enable-background="new    ">
					<text transform="matrix(1 0 0 1 -2.0127 38)" font-family="'HelveticaNeueLTStd-Roman'" font-size="12">0.75%</text>
				</g>
			</g>
			<g transform="translate(110,0)">
				<rect fill="#FEB24C" fill-opacity="0.8" width="30" height="20"/>
				<g enable-background="new    ">
					<text transform="matrix(1 0 0 1 -2.0127 38)" font-family="'HelveticaNeueLTStd-Roman'" font-size="12">1.25%</text>
				</g>
			</g>
			<g transform="translate(165,0)">
				<rect fill="#FD8D3C" fill-opacity="0.8" width="30" height="20"/>
				<g enable-background="new    ">
					<text transform="matrix(1 0 0 1 1.3242 38)" font-family="'HelveticaNeueLTStd-Roman'" font-size="12">2.0%</text>
				</g>
			</g>
			<g transform="translate(220,0)">
				<rect fill="#FC4E2A" fill-opacity="0.8" width="30" height="20"/>
				<g enable-background="new    ">
					<text transform="matrix(1 0 0 1 1.3242 38)" font-family="'HelveticaNeueLTStd-Roman'" font-size="12">3.5%</text>
				</g>
			</g>
			<g transform="translate(275,0)">
				<rect fill="#E31A1C" fill-opacity="0.8" width="30" height="20"/>
				<g enable-background="new    ">
					<text transform="matrix(1 0 0 1 -3.8467 38)" font-family="'HelveticaNeueLTStd-Roman'" font-size="12">&gt; 5.0%</text>
				</g>
			</g>
		</g>
		<g enable-background="new    ">
			<text transform="matrix(1 0 0 1 58 10)" font-family="'HelveticaNeueLTStd-Bd'" font-size="16">Hispanic Population Density</text>
		</g>
	</g>
</g>
</svg>
