<?xml version="1.0" encoding="utf-8"?>
<!-- Generator: Adobe Illustrator 17.0.0, SVG Export Plug-In . SVG Version: 6.00 Build 0)  -->
<!DOCTYPE svg PUBLIC "-//W3C//DTD SVG 1.1//EN" "http://www.w3.org/Graphics/SVG/1.1/DTD/svg11.dtd">
<svg version="1.1" id="Layer_1" xmlns="http://www.w3.org/2000/svg" xmlns:xlink="http://www.w3.org/1999/xlink" x="0px" y="0px"
	 width="775px" height="429.94px" viewBox="-6 -53.94 775 429.94" enable-background="new -6 -53.94 775 429.94"
	 xml:space="preserve">
<g id="Chart">
	<g transform="translate(50,20)">
		<g>
			<rect y="24" fill="#2166AC" width="342" height="45"/>
			<rect y="91" fill="#2166AC" width="330" height="45"/>
			<rect y="158" fill="#2166AC" width="335" height="45"/>
			<rect y="225" fill="#2166AC" width="367" height="45"/>
			<rect y="292" fill="#2166AC" width="354" height="45"/>
			<text transform="matrix(1 0 0 1 5 51.5)" fill="#FFFFFF" font-family="'HelveticaNeueLTStd-Roman'" font-size="12">50.3%</text>
			<text transform="matrix(1 0 0 1 5 118.5)" fill="#FFFFFF" font-family="'HelveticaNeueLTStd-Roman'" font-size="12">48.5%</text>
			<text transform="matrix(1 0 0 1 5 185.5)" fill="#FFFFFF" font-family="'HelveticaNeueLTStd-Roman'" font-size="12">49.3%</text>
			<text transform="matrix(1 0 0 1 5 252.5)" fill="#FFFFFF" font-family="'HelveticaNeueLTStd-Roman'" font-size="12">53.9%</text>
			<text transform="matrix(1 0 0 1 5 319.5)" fill="#FFFFFF" font-family="'HelveticaNeueLTStd-Roman'" font-size="12">52.0%</text>
		</g>
		<g>
			<rect x="352" y="24" fill="#DDDDDD" width="67" height="45"/>
			<rect x="340" y="91" fill="#DDDDDD" width="22" height="45"/>
			<rect x="345" y="158" fill="#DDDDDD" width="6" height="45"/>
			<rect x="377" y="225" fill="#DDDDDD" width="11" height="45"/>
			<rect x="364" y="292" fill="#DDDDDD" width="12" height="45"/>
			<text transform="matrix(1 0 0 1 374.6484 51.5)" fill="#222222" font-family="'HelveticaNeueLTStd-Roman'" font-size="12">9.8%</text>
			
				<text transform="matrix(1 0 0 1 335 118.5)" display="none" fill="#222222" enable-background="new    " font-family="'ArialMT'" font-size="12">3.3%</text>
			
				<text transform="matrix(1 0 0 1 340 185.5)" display="none" fill="#222222" enable-background="new    " font-family="'ArialMT'" font-size="12">0.8%</text>
			
				<text transform="matrix(1 0 0 1 345.6484 252.5)" display="none" fill="#222222" enable-background="new    " font-family="'ArialMT'" font-size="12">1.7%</text>
			
				<text transform="matrix(1 0 0 1 333.6484 319.5)" display="none" fill="#222222" enable-background="new    " font-family="'ArialMT'" font-size="12">1.8%</text>
		</g>
		<g>
			<rect x="429" y="24" fill="#B2182B" width="271" height="45"/>
			<rect x="372" y="91" fill="#B2182B" width="328" height="45"/>
			<rect x="361" y="158" fill="#B2182B" width="339" height="45"/>
			<rect x="398" y="225" fill="#B2182B" width="302" height="45"/>
			<rect x="386" y="292" fill="#B2182B" width="314" height="45"/>
			<text transform="matrix(1 0 0 1 660.9746 51.5)" fill="#FFFFFF" font-family="'HelveticaNeueLTStd-Roman'" font-size="12">39.9%</text>
			<text transform="matrix(1 0 0 1 660.9746 118.5)" fill="#FFFFFF" font-family="'HelveticaNeueLTStd-Roman'" font-size="12">48.2%</text>
			<text transform="matrix(1 0 0 1 659.9746 185.5)" fill="#FFFFFF" font-family="'HelveticaNeueLTStd-Roman'" font-size="12">49.9%</text>
			<text transform="matrix(1 0 0 1 660.9746 252.5)" fill="#FFFFFF" font-family="'HelveticaNeueLTStd-Roman'" font-size="12">44.4%</text>
			<text transform="matrix(1 0 0 1 660.9746 319.5)" fill="#FFFFFF" font-family="'HelveticaNeueLTStd-Roman'" font-size="12">46.2%</text>
		</g>
		<text transform="matrix(1 0 0 1 7 12)" font-family="'HelveticaNeueLTStd-Roman'" font-size="16">Democrat</text>
		<text transform="matrix(1 0 0 1 340 12)" font-family="'HelveticaNeueLTStd-Roman'" font-size="16">Independent</text>
		<text transform="matrix(1 0 0 1 604 12)" font-family="'HelveticaNeueLTStd-Roman'" font-size="16">Republican</text>
		<g transform="translate(0,0)">
			<path display="none" fill="none" stroke="#000000" d="M-6,0.5h6.5v360H-6"/>
			<g transform="translate(0,47)">
				<line display="none" fill="none" stroke="#000000" x1="0" y1="0.5" x2="-6" y2="0.5"/>
				<text transform="matrix(1 0 0 1 -40.136 4.9799)" font-family="'HelveticaNeueLTStd-Roman'" font-size="14">1996</text>
			</g>
			<g transform="translate(0,114)">
				<line display="none" fill="none" stroke="#000000" x1="0" y1="0.5" x2="-6" y2="0.5"/>
				<text transform="matrix(1 0 0 1 -40.136 4.98)" font-family="'HelveticaNeueLTStd-Roman'" font-size="14">2000</text>
			</g>
			<g transform="translate(0,181)">
				<line display="none" fill="none" stroke="#000000" x1="0" y1="0.5" x2="-6" y2="0.5"/>
				<text transform="matrix(1 0 0 1 -40.136 4.98)" font-family="'HelveticaNeueLTStd-Roman'" font-size="14">2004</text>
			</g>
			<g transform="translate(0,248)">
				<line display="none" fill="none" stroke="#000000" x1="0" y1="0.5" x2="-6" y2="0.5"/>
				<text transform="matrix(1 0 0 1 -40.136 4.98)" font-family="'HelveticaNeueLTStd-Roman'" font-size="14">2008</text>
			</g>
			<g transform="translate(0,315)">
				<line display="none" fill="none" stroke="#000000" x1="0" y1="0.5" x2="-6" y2="0.5"/>
				<text transform="matrix(1 0 0 1 -40.136 4.98)" font-family="'HelveticaNeueLTStd-Roman'" font-size="14">2012</text>
			</g>
		</g>
		<line display="none" fill="none" x1="340" y1="24" x2="340" y2="292"/>
	</g>
</g>
<g id="Title">
	<text transform="matrix(1 0 0 1 56.9999 -26.5)" font-family="'HelveticaNeueLTStd-Bd'" font-size="18">How Iowa voted</text>
	<text transform="matrix(1 0 0 1 56.9999 -7.3)" font-family="'HelveticaNeueLTStd-Roman'" font-size="16">Voter distribution between Democratic, Independent, and Republican parties.</text>
</g>
</svg>
