<?xml version="1.0" encoding="utf-8"?>
<!-- Generator: Adobe Illustrator 17.0.0, SVG Export Plug-In . SVG Version: 6.00 Build 0)  -->
<!DOCTYPE svg PUBLIC "-//W3C//DTD SVG 1.1//EN" "http://www.w3.org/Graphics/SVG/1.1/DTD/svg11.dtd">
<svg version="1.1" id="Layer_1" xmlns="http://www.w3.org/2000/svg" xmlns:xlink="http://www.w3.org/1999/xlink" x="0px" y="0px"
	 width="750px" height="500px" viewBox="0 0 750 500" enable-background="new 0 0 750 500" xml:space="preserve">
<g id="Layer_1_1_">
	<g transform="translate(50,20)">
		<g transform="translate(0,450)">
			<path display="none" fill="none" stroke="#000000" d="M0.5,6V0.5h650V6"/>
			<g transform="translate(1,0)">
				<line fill="none" stroke="#000000" x1="0.5" y1="0" x2="0.5" y2="6"/>
				<text transform="matrix(1 0 0 1 -11.732 22.81)" font-family="'HelveticaNeueLTStd-Roman'" font-size="11">1996</text>
			</g>
			<g transform="translate(163,0)">
				<line fill="none" stroke="#000000" x1="0.5" y1="0" x2="0.5" y2="6"/>
				<text transform="matrix(1 0 0 1 -11.732 22.81)" font-family="'HelveticaNeueLTStd-Roman'" font-size="11">2000</text>
			</g>
			<g transform="translate(325,0)">
				<line fill="none" stroke="#000000" x1="0.5" y1="0" x2="0.5" y2="6"/>
				<text transform="matrix(1 0 0 1 -11.732 22.81)" font-family="'HelveticaNeueLTStd-Roman'" font-size="11">2004</text>
			</g>
			<g transform="translate(487,0)">
				<line fill="none" stroke="#000000" x1="0.5" y1="0" x2="0.5" y2="6"/>
				<text transform="matrix(1 0 0 1 -11.732 22.81)" font-family="'HelveticaNeueLTStd-Roman'" font-size="11">2008</text>
			</g>
			<g transform="translate(649,0)">
				<line fill="none" stroke="#000000" x1="0.5" y1="0" x2="0.5" y2="6"/>
				<text transform="matrix(1 0 0 1 -11.732 22.81)" font-family="'HelveticaNeueLTStd-Roman'" font-size="11">2012</text>
			</g>
		</g>
		<g>
			<path fill="none" stroke="#000000" d="M-16,450.5h6.5V0.5H-16"/>
			<g transform="translate(0,450)">
				<line fill="none" stroke="#000000" x1="-10" y1="0.5" x2="-16" y2="0.5"/>
				<text transform="matrix(1 0 0 1 -25.116 4.02)" font-family="'HelveticaNeueLTStd-Roman'" font-size="11">0</text>
			</g>
			<g transform="translate(0,405)">
				<line fill="none" stroke="#000000" x1="-10" y1="0.5" x2="-16" y2="0.5"/>
				<text transform="matrix(1 0 0 1 -31.232 4.02)" font-family="'HelveticaNeueLTStd-Roman'" font-size="11">10</text>
			</g>
			<g transform="translate(0,360)">
				<line fill="none" stroke="#000000" x1="-10" y1="0.5" x2="-16" y2="0.5"/>
				<text transform="matrix(1 0 0 1 -31.232 4.02)" font-family="'HelveticaNeueLTStd-Roman'" font-size="11">20</text>
			</g>
			<g transform="translate(0,315)">
				<line fill="none" stroke="#000000" x1="-10" y1="0.5" x2="-16" y2="0.5"/>
				<text transform="matrix(1 0 0 1 -31.232 4.02)" font-family="'HelveticaNeueLTStd-Roman'" font-size="11">30</text>
			</g>
			<g transform="translate(0,270)">
				<line fill="none" stroke="#000000" x1="-10" y1="0.5" x2="-16" y2="0.5"/>
				<text transform="matrix(1 0 0 1 -31.232 4.02)" font-family="'HelveticaNeueLTStd-Roman'" font-size="11">40</text>
			</g>
			<g transform="translate(0,225)">
				<line fill="none" stroke="#000000" x1="-10" y1="0.5" x2="-16" y2="0.5"/>
				<text transform="matrix(1 0 0 1 -31.232 4.02)" font-family="'HelveticaNeueLTStd-Roman'" font-size="11">50</text>
			</g>
			<g transform="translate(0,180)">
				<line fill="none" stroke="#000000" x1="-10" y1="0.5" x2="-16" y2="0.5"/>
				<text transform="matrix(1 0 0 1 -31.232 4.02)" font-family="'HelveticaNeueLTStd-Roman'" font-size="11">60</text>
			</g>
			<g transform="translate(0,135)">
				<line fill="none" stroke="#000000" x1="-10" y1="0.5" x2="-16" y2="0.5"/>
				<text transform="matrix(1 0 0 1 -31.232 4.02)" font-family="'HelveticaNeueLTStd-Roman'" font-size="11">70</text>
			</g>
			<g transform="translate(0,90)">
				<line fill="none" stroke="#000000" x1="-10" y1="0.5" x2="-16" y2="0.5"/>
				<text transform="matrix(1 0 0 1 -31.232 4.02)" font-family="'HelveticaNeueLTStd-Roman'" font-size="11">80</text>
			</g>
			<g transform="translate(0,45)">
				<line fill="none" stroke="#000000" x1="-10" y1="0.5" x2="-16" y2="0.5"/>
				<text transform="matrix(1 0 0 1 -31.232 4.02)" font-family="'HelveticaNeueLTStd-Roman'" font-size="11">90</text>
			</g>
			<g transform="translate(0,0)">
				<line fill="none" stroke="#000000" x1="-10" y1="0.5" x2="-16" y2="0.5"/>
				<text transform="matrix(1 0 0 1 -37.348 4.02)" font-family="'HelveticaNeueLTStd-Roman'" font-size="11">100</text>
			</g>
			
				<text transform="matrix(6.123234e-017 -1 1 6.123234e-017 3.81 81.9824)" font-family="'HelveticaNeueLTStd-Roman'" font-size="11">Voter Turnout %</text>
		</g>
		<g>
			<path fill="none" stroke="#444444" stroke-width="1.5" d="M325,120l162,175l162-64"/>
			<text transform="matrix(1 0 0 1 652 234.85)" font-family="'HelveticaNeueLTStd-Roman'" font-size="11">Asian</text>
		</g>
		<g>
			<path fill="none" stroke="#555555" stroke-width="1.5" d="M1,241l162-3l162-76l162,10l162-13"/>
			<text transform="matrix(1 0 0 1 652 162.85)" font-family="'HelveticaNeueLTStd-Roman'" font-size="11">Black</text>
		</g>
		<g>
			<path fill="none" stroke="#E31A1C" stroke-width="2" d="M1,338l162-183l162,70l162-65l162,100"/>
			<text transform="matrix(1 0 0 1 652 263.85)" font-family="'HelveticaNeueLTStd-Bd'" font-size="11">Hispanic</text>
		</g>
		<g>
			<path fill="none" stroke="#555555" stroke-width="1.5" d="M1,165l162-22l162-15l162,3l162,5"/>
			<text transform="matrix(1 0 0 1 652 139.85)" font-family="'HelveticaNeueLTStd-Roman'" font-size="11">White</text>
		</g>
	</g>
</g>
<g id="Annotation">
	<text transform="matrix(1 0 0 1 374.5986 35.4999)" font-family="'HelveticaNeueLTStd-Bd'" font-size="18">Voting participation by ethnic groups</text>
	<text transform="matrix(1 0 0 1 374.5986 54.6999)" font-family="'HelveticaNeueLTStd-Roman'" font-size="16">Percentage of eligible voters who participated</text>
	<text transform="matrix(1 0 0 1 374.5986 73.8999)" font-family="'HelveticaNeueLTStd-Roman'" font-size="16">in Presidential elections.</text>
</g>
</svg>
